<?xml version="1.0" encoding="utf-8"?>
<!-- Generator: Adobe Illustrator 22.0.0, SVG Export Plug-In . SVG Version: 6.00 Build 0)  -->
<svg version="1.1" id="Layer_1" xmlns="http://www.w3.org/2000/svg" xmlns:xlink="http://www.w3.org/1999/xlink" x="0px" y="0px"
	 viewBox="0 0 800 800" style="enable-background:new 0 0 800 800;" xml:space="preserve">
<style type="text/css">
	.st0{fill:none;}
	.st1{fill:#F87000;}
	.st2{fill:#4FA0CA;}
	.st3{font-family:'MyriadPro-Regular';}
	.st4{font-size:48.6303px;}
</style>
<rect x="6.7" class="st0" width="800" height="800"/>
<g>
	<g>
		<g>
			<g>
				<g>
					<path class="st1" d="M291.6,458c-4.2,0-8.2-1.6-11.1-4.6c-3-3-4.6-6.9-4.6-11.1c0-4.2,1.6-8.1,4.6-11.1c3-3,6.9-4.6,11.1-4.6
						c4.2,0,8.1,1.6,11.1,4.6c6.1,6.1,6.1,16.1,0,22.2C299.8,456.4,295.8,458,291.6,458z"/>
				</g>
				<g>
					<path class="st1" d="M206.2,374.2c-4.2,0-8.2-1.6-11.1-4.6c-3-3-4.6-6.9-4.6-11.1c0-4.2,1.6-8.1,4.6-11.1c3-3,6.9-4.6,11.1-4.6
						c4.2,0,8.1,1.6,11.1,4.6c3,3,4.6,6.9,4.6,11.1c0,4.2-1.6,8.2-4.6,11.1C214.4,372.5,210.4,374.2,206.2,374.2z"/>
				</g>
				<path class="st1" d="M290.9,373.7c-4.2,0-8.2-1.6-11.1-4.6c-6.1-6.1-6.1-16.1,0-22.2c3-3,6.9-4.6,11.1-4.6
					c4.2,0,8.1,1.6,11.1,4.6c6.1,6.1,6.1,16.1,0,22.2C299.1,372.1,295.1,373.7,290.9,373.7z"/>
				<g>
					<path class="st1" d="M206.6,458c-4.2,0-8.2-1.6-11.1-4.6c-3-3-4.6-6.9-4.6-11.1c0-4.2,1.6-8.1,4.6-11.1
						c0.6-0.6,1.3-1.2,2.2-1.8c0.3-0.2,0.5-0.3,0.8-0.5c0.6-0.3,1.2-0.6,1.7-0.9c0.3-0.1,0.6-0.3,0.9-0.4c0.6-0.2,1.2-0.4,1.9-0.6
						c0.1,0,0.3-0.1,0.4-0.1c0.1,0,0.2,0,0.2-0.1l3.5-0.2c0.4,0,0.9,0.1,1.4,0.1l0.2,0c0.1,0,0.3,0,0.4,0l0.1,0l0.2,0h0.1
						c0.3,0,0.5,0,0.8,0c6,0,12-2.6,16.3-7c4.3-4.5,6.7-10.5,6.6-16.5l0-0.2l0-0.2c0-0.2,0-0.3-0.1-0.5c0-0.2,0-0.4-0.1-0.6l0-0.4
						c0-0.3-0.1-0.6-0.1-0.9l0.3-3.5c0-0.1,0-0.2,0.1-0.3l0.1-0.2c0.2-0.7,0.3-1.3,0.6-2c0.1-0.4,0.3-0.6,0.4-0.9
						c0.3-0.6,0.6-1.2,0.9-1.7c0.1-0.2,0.3-0.5,0.5-0.7c0.6-0.9,1.2-1.6,1.8-2.2c3-3,6.9-4.6,11.1-4.6c4.2,0,8.2,1.6,11.1,4.6
						c6.1,6.1,6.1,16.1,0,22.2c-0.6,0.6-1.3,1.2-2.2,1.8c-0.3,0.2-0.5,0.3-0.8,0.5c-0.6,0.3-1.1,0.6-1.7,0.9
						c-0.3,0.1-0.6,0.3-0.9,0.4c-0.6,0.2-1.2,0.4-1.9,0.6l-0.4,0.1c-0.1,0-0.2,0.1-0.3,0.1l-3.5,0.3c-0.4,0-0.8-0.1-1.3-0.1l-0.3,0
						c-0.1,0-0.3,0-0.4,0l-0.1,0l-0.2,0h-0.1c-0.3,0-0.5,0-0.8,0c-6,0-12,2.6-16.3,7c-4.3,4.5-6.7,10.5-6.6,16.5l0,0.2l0,0.2
						c0,0.2,0,0.3,0.1,0.5c0,0.2,0,0.4,0.1,0.6c0,0.1,0,0.3,0.1,0.5c0,0.2,0.1,0.5,0.1,0.7v0.1l-0.3,3.4c0,0.1-0.1,0.5-0.2,0.6
						c-0.2,0.7-0.4,1.4-0.6,1.9c-0.1,0.3-0.2,0.6-0.4,0.9c-0.3,0.6-0.6,1.2-0.9,1.8c-0.1,0.2-0.3,0.5-0.5,0.8
						c-0.6,0.8-1.2,1.6-1.8,2.2C214.8,456.4,210.8,458,206.6,458L206.6,458z"/>
				</g>
				<path class="st1" d="M249.1,458c-4.2,0-8.2-1.6-11.1-4.6c-3-3-4.6-6.9-4.6-11.1c0-4.2,1.6-8.1,4.6-11.1c0.6-0.6,1.3-1.2,2.2-1.8
					c0.2-0.2,0.5-0.3,0.7-0.5c0.6-0.3,1.1-0.6,1.7-0.9c0.3-0.1,0.6-0.3,0.9-0.4c0.6-0.2,1.2-0.4,1.9-0.6c0,0,0.6-0.2,0.6-0.2
					l3.6-0.3c0.4,0,0.9,0.1,1.3,0.1l0.3,0c0.2,0,0.3,0,0.5,0c0.1,0,0.1,0,0.2,0l0.1,0l0.1,0c0.3,0,0.5,0,0.8,0c6,0,12-2.6,16.3-7
					c4.3-4.5,6.7-10.5,6.6-16.5l0-0.7l-0.1-0.1c0,0,0-0.1,0-0.1c0-0.2,0-0.3,0-0.5l-0.1-0.5c0-0.3-0.1-0.6-0.1-0.8l0.2-3.4
					c0-0.1,0.1-0.5,0.2-0.6c0.2-0.8,0.4-1.4,0.6-1.9c0.1-0.3,0.2-0.6,0.4-0.9c0.3-0.5,0.5-1.1,0.9-1.7l0.1-0.1
					c0.1-0.2,0.2-0.4,0.4-0.6c0.6-0.9,1.2-1.6,1.8-2.2c3-3,6.9-4.6,11.1-4.6c4.2,0,8.1,1.6,11.1,4.6c6.1,6.1,6.1,16.1,0,22.2
					c-0.6,0.6-1.3,1.2-2.2,1.8c-0.2,0.1-0.3,0.2-0.5,0.3l-0.3,0.2c-0.5,0.3-1.1,0.6-1.7,0.9c-0.3,0.1-0.6,0.3-0.9,0.4
					c-0.6,0.2-1.2,0.4-1.9,0.6c-0.2,0-0.3,0.1-0.4,0.1c-0.1,0-0.2,0-0.2,0.1l-3.5,0.2c-0.5,0-1.1-0.1-1.6-0.2c-0.2,0-0.3,0-0.5,0
					c-0.1,0-0.1,0-0.2,0l-0.3,0c-0.3,0-0.5,0-0.8,0c-6,0-12,2.6-16.3,7c-4.3,4.5-6.7,10.5-6.5,16.5l0,0.2l0,0.2c0,0.2,0,0.4,0.1,0.5
					c0,0.2,0,0.4,0,0.5c0,0.1,0,0.3,0.1,0.5c0,0.3,0.1,0.5,0.1,0.8l-0.3,3.5c0,0.1-0.2,0.5-0.2,0.5c-0.2,0.7-0.4,1.4-0.6,2
					c-0.1,0.3-0.2,0.6-0.4,0.8l0,0.1c-0.3,0.6-0.6,1.1-0.9,1.7c-0.2,0.3-0.3,0.5-0.5,0.8c-0.6,0.9-1.2,1.6-1.8,2.2
					C257.2,456.4,253.3,458,249.1,458L249.1,458z"/>
				<path class="st1" d="M206.6,415.6c-4.2,0-8.2-1.6-11.1-4.6c-3-3-4.6-6.9-4.6-11.1c0-4.2,1.6-8.1,4.6-11.1
					c0.6-0.6,1.3-1.2,2.2-1.8c0.2-0.2,0.5-0.3,0.8-0.5c0.5-0.3,1.1-0.6,1.7-0.9c0.3-0.1,0.6-0.3,0.9-0.4c0.6-0.2,1.2-0.4,1.9-0.5
					l0.4-0.1c0.1,0,0.1,0,0.2-0.1l3.6-0.3c0.5,0,1,0.1,1.5,0.2l0.1,0c0.2,0,0.3,0,0.5,0c0.1,0,0.1,0,0.2,0l0.2,0l0.1,0
					c0.3,0,0.5,0,0.8,0c6,0,12-2.6,16.3-7c4.3-4.5,6.7-10.5,6.5-16.5l0-0.2l0-0.2c0-0.2,0-0.4-0.1-0.6c0-0.2,0-0.3,0-0.5l-0.1-0.5
					c0-0.3-0.1-0.6-0.1-0.9l0.2-3.3l0-0.1v-0.1c0-0.1,0.1-0.5,0.1-0.5c0.2-0.8,0.4-1.5,0.6-2c0.1-0.3,0.3-0.6,0.4-0.9
					c0.3-0.6,0.6-1.1,0.9-1.7l0.1-0.1c0.1-0.2,0.3-0.5,0.4-0.7c0.6-0.9,1.2-1.6,1.8-2.2c3-3,6.9-4.6,11.1-4.6
					c4.2,0,8.2,1.6,11.1,4.6c6.1,6.1,6.1,16.1,0,22.2c-0.6,0.6-1.3,1.2-2.2,1.8c-0.2,0.2-0.4,0.3-0.7,0.4l-0.1,0.1
					c-0.6,0.3-1.1,0.6-1.7,0.9c-0.3,0.1-0.6,0.3-0.9,0.4c-0.6,0.2-1.2,0.4-1.9,0.6c-0.1,0-0.3,0.1-0.4,0.1c-0.1,0-0.2,0-0.2,0.1
					l-3.5,0.2c-0.4,0-0.9-0.1-1.4-0.1l-0.2,0c-0.2,0-0.3,0-0.5,0c-0.1,0-0.1,0-0.2,0l-0.1,0l-0.2,0c-0.3,0-0.5,0-0.8,0
					c-6,0-12,2.6-16.3,7c-4.3,4.5-6.7,10.5-6.6,16.5l0,0.2l0,0.2c0,0.2,0,0.4,0.1,0.5c0,0.2,0,0.4,0,0.6c0,0.1,0,0.3,0.1,0.5
					c0,0.3,0.1,0.5,0.1,0.8l-0.3,3.4c0,0.1,0,0.2-0.1,0.3l-0.1,0.3c-0.2,0.8-0.4,1.4-0.6,2c-0.1,0.3-0.3,0.6-0.4,0.9
					c-0.3,0.6-0.6,1.1-0.9,1.7c-0.2,0.3-0.3,0.5-0.5,0.8c-0.6,0.9-1.2,1.6-1.8,2.2C214.8,413.9,210.8,415.6,206.6,415.6L206.6,415.6
					z"/>
			</g>
		</g>
	</g>
	<text transform="matrix(0.987 0 0 1 323 414.4063)"><tspan x="0" y="0" class="st2 st3 st4">Find</tspan><tspan x="89.5" y="0" class="st3 st4">Freelancer</tspan></text>
</g>
</svg>
